{"title":"Lebbis.Zwart.DVDRIP.XVID-MisterDeee","uid":6126742,"size":687717280,"categoryP":"video","categoryS":"tv_shows","magnet":"?xt=urn:btih:881aeb37506b0c472671bb5380dfe1e8a5c25ed9&amp;dn=Lebbis.Zwart.DVDRIP.XVID-MisterDeee&amp;tr=udp%3A%2F%2Ftracker.openbittorrent.com%3A80&amp;tr=udp%3A%2F%2Fopen.demonii.com%3A1337&amp;tr=udp%3A%2F%2Ftracker.coppersurfer.tk%3A6969&amp;tr=udp%3A%2F%2Fexodus.desync.com%3A6969","seeders":2,"leechers":0,"uploader":"MisterDeee","files":-1,"time":1295965213,"description":"Zwart - Zwart gaat over dingen die je altijd al hebt willen, maar nooit hebt durven doen. Tegengehouden door moraal, omgeving of partner. Behalve die ene dag... Met 250 kilometer per uur over de snelweg scheuren. Een kleine en weerloze puber die je op zijn (ongetwijfeld gejatte) scootertje afsnijdt eens goed op zijn bek slaan. De hele dag achter een parkeerwacht aanlopen en vragen of hij een kick krijgt van het zetten van wielklemmen. Dat is volgens Lebbis Zwart. Lebbis: &quot;Iedereen heeft een beetje zwart. Voor het evenwicht. Behalve moeder Teresa. Maar die is dood.&quot;\n\nGeneral\nFormat                           : AVI\nFormat/Info                      : Audio Video Interleave\nFile size                        : 656 MiB\nDuration                         : 1h 13mn\nOverall bit rate                 : 1 254 Kbps\n\nVideo\nID                               : 0\nFormat                           : MPEG-4 Visual\nFormat profile                   : Simple@L3\nFormat settings, BVOP            : No\nFormat settings, QPel            : No\nFormat settings, GMC             : No warppoints\nFormat settings, Matrix          : Default (H.263)\nCodec ID                         : XVID\nCodec ID/Hint                    : XviD\nDuration                         : 1h 13mn\nBit rate                         : 800 Kbps\nWidth                            : 672 pixels\nHeight                           : 368 pixels\nDisplay aspect ratio             : 16:9\nFrame rate                       : 30.000 fps\nColor space                      : YUV\nChroma subsampling               : 4:2:0\nBit depth                        : 8 bits\nScan type                        : Progressive\nBits/(Pixel*Frame)               : 0.108\nStream size                      : 418 MiB (64%)\nWriting library                  : XviD 1.1.2 (UTC 2006-11-01)\n\nAudio\nID                               : 1\nFormat                           : AC-3\nFormat/Info                      : Audio Coding 3\nMode extension                   : CM (complete main)\nCodec ID                         : 2000\nDuration                         : 1h 13mn\nBit rate mode                    : Constant\nBit rate                         : 448 Kbps\nChannel(s)                       : 2 channels\nChannel positions                : Front: L R\nSampling rate                    : 48.0 KHz\nBit depth                        : 16 bits\nStream size                      : 234 MiB (36%)\nAlignment                        : Split accross interleaves\nInterleave, duration             : 500 ms (15.00 video frames)\nInterleave, preload duration     : 500 ms\n\nLeave your comment about Audio/Video/Movie.","torrent":{"xt":"urn:btih:881aeb37506b0c472671bb5380dfe1e8a5c25ed9","amp;dn":"Lebbis.Zwart.DVDRIP.XVID-MisterDeee","amp;tr":["udp%3A%2F%2Ftracker.openbittorrent.com%3A80","udp%3A%2F%2Fopen.demonii.com%3A1337","udp%3A%2F%2Ftracker.coppersurfer.tk%3A6969","udp%3A%2F%2Fexodus.desync.com%3A6969"],"infoHash":"881aeb37506b0c472671bb5380dfe1e8a5c25ed9","infoHashBuffer":{"type":"Buffer","data":[136,26,235,55,80,107,12,71,38,113,187,83,128,223,225,232,165,194,94,217]},"announce":[],"urlList":[]}}